<svg width="242" height="70" viewBox="0 0 242 70" fill="none" xmlns="http://www.w3.org/2000/svg">
<g clip-path="url(#clip0_4_25)">
<path d="M69.7207 49.6783C69.3802 48.7972 68.9823 47.9447 68.6039 47.1548C68.0212 45.9399 67.411 44.7226 66.8207 43.5459L66.774 43.4525C61.5095 32.9413 55.8591 22.2865 49.9799 11.7841L49.7303 11.3382C49.1305 10.2657 48.5106 9.15679 47.8742 8.06719C47.1198 6.68828 46.2042 5.38912 45.1439 4.19274C43.9503 2.87987 42.4582 1.82399 40.773 1.09956C39.0877 0.375126 37.2502 -0.000215241 35.3901 9.26004e-08C33.53 0.000215426 31.6927 0.375981 30.0075 1.1008C28.3225 1.82562 26.8307 2.88186 25.6375 4.19499C24.5784 5.39166 23.6634 6.69053 22.9087 8.06877C22.2669 9.16814 21.6411 10.2873 21.036 11.3697L20.8042 11.784C14.9248 22.2871 9.27437 32.942 4.00996 43.4523L3.93326 43.6052C3.35322 44.7628 2.75351 45.9598 2.18055 47.1544C1.80193 47.9437 1.40457 48.7955 1.06374 49.6788C0.087562 52.0853 -0.223504 54.6772 0.15851 57.2217C0.563627 59.7931 1.69165 62.2228 3.43085 64.2696C5.17005 66.3165 7.4601 67.9096 10.0742 68.8914C12.0486 69.6279 14.1598 70.0044 16.2903 70C16.9595 69.9998 17.6282 69.9639 18.293 69.8926C20.9876 69.5761 23.5864 68.7676 25.9369 67.5148C29.0203 65.9177 32.0655 63.5771 35.392 60.2324C38.7186 63.5771 41.7637 65.9177 44.8471 67.5148C47.1976 68.7678 49.7965 69.5761 52.491 69.8926C53.1558 69.9639 53.8246 69.9998 54.4939 70C56.6242 70.0044 58.7351 69.6279 60.7095 68.8914C63.3236 67.9096 65.6138 66.3165 67.3531 64.2696C69.0924 62.2228 70.2206 59.7933 70.6258 57.2217C71.0073 54.677 70.6963 52.085 69.7207 49.6783ZM35.392 53.3247C31.274 48.512 28.6314 44.0427 27.7043 40.2959C27.3244 38.892 27.2347 37.4349 27.44 36.0003C27.602 34.9488 28.021 33.9448 28.6654 33.0636C29.4583 32.1156 30.4773 31.3477 31.6436 30.8195C32.81 30.2914 34.0926 30.0167 35.3925 30.0167C36.6927 30.0169 37.975 30.2916 39.1414 30.8201C40.3077 31.3484 41.3265 32.1162 42.1194 33.0643C42.7638 33.9458 43.1828 34.9499 43.3448 36.0017C43.5496 37.4369 43.4596 38.8944 43.0791 40.2988C42.1509 44.0451 39.5091 48.5131 35.392 53.3247ZM65.8159 56.5882C65.5327 58.3861 64.7438 60.0849 63.5278 61.516C62.3117 62.9473 60.7104 64.0614 58.8826 64.7478C57.0344 65.4305 55.0287 65.6725 53.0519 65.4511C50.997 65.207 49.0166 64.5835 47.2301 63.6177C44.4855 62.1961 41.7073 60.0136 38.581 56.812C43.5579 51.1538 46.6657 45.9386 47.8164 41.2934C48.3343 39.34 48.4465 37.3142 48.1473 35.3227C47.8759 33.607 47.185 31.9703 46.1269 30.536C44.8872 28.9885 43.2701 27.7305 41.4057 26.8636C39.5411 25.9967 37.4815 25.545 35.3925 25.545C33.3037 25.545 31.2439 25.9965 29.3793 26.8632C27.5147 27.7298 25.8976 28.9877 24.6579 30.5351C23.5999 31.969 22.9091 33.6052 22.6374 35.3205C22.3381 37.3113 22.4498 39.3361 22.9665 41.2888C24.1165 45.936 27.2245 51.1525 32.2031 56.8124C29.0768 60.0136 26.2985 62.1961 23.5539 63.618C21.7674 64.5835 19.7872 65.2072 17.7323 65.4511C15.7553 65.6725 13.7495 65.4305 11.9012 64.7478C10.0734 64.0614 8.47218 62.9473 7.25616 61.5162C6.04015 60.0849 5.25152 58.3861 4.96838 56.5882C4.69603 54.7606 4.92781 52.8992 5.64235 51.1757C5.91396 50.4717 6.23181 49.7809 6.62558 48.9602C7.18265 47.7991 7.77382 46.6189 8.34565 45.4777L8.42245 45.3243C13.6574 34.8729 19.2765 24.2773 25.1239 13.8314L25.3566 13.4156C25.9519 12.3506 26.5676 11.2496 27.1887 10.1857C27.7828 9.08908 28.5019 8.05374 29.334 7.09713C30.0711 6.276 30.9964 5.6149 32.0434 5.16106C33.0907 4.70719 34.2337 4.47182 35.3911 4.47173C36.5484 4.47164 37.6917 4.70687 38.7387 5.16055C39.786 5.61424 40.7113 6.27522 41.4487 7.09623C42.2812 8.05212 43.0006 9.08712 43.5942 10.1836C44.2096 11.2381 44.8198 12.3293 45.4101 13.3844L45.6602 13.8319C51.5073 24.2767 57.1262 34.872 62.3617 45.3252L62.409 45.4193C62.9907 46.5798 63.5921 47.7792 64.1585 48.9606C64.5528 49.7825 64.8712 50.4739 65.1421 51.1753C65.8563 52.899 66.0881 54.7603 65.8159 56.5882Z" fill="black"/>
<path d="M98.899 52.7616C97.0031 52.7616 95.259 52.4112 93.6663 51.7105C92.0739 51.0099 90.7089 50.0288 89.4954 48.7675C88.2821 47.5064 87.3722 46.0348 86.6896 44.4233C86.007 42.7416 85.7036 40.9198 85.7036 38.9578C85.7036 36.9959 86.0829 35.1039 86.7653 33.4222C87.4479 31.7406 88.4337 30.2691 89.6472 28.9378C90.8605 27.6765 92.3014 26.6254 93.9698 25.9247C95.6382 25.2241 97.3825 24.8736 99.354 24.8736C101.25 24.8736 102.918 25.2241 104.435 25.9947C105.952 26.6956 107.165 27.7465 108.151 29.0778L108.378 25.6445H115.355V52.0607H108.378L108.151 48.207C107.165 49.6083 105.876 50.7294 104.208 51.5703C102.691 52.3412 100.871 52.7616 98.899 52.7616ZM100.719 46.4553C102.084 46.4553 103.297 46.1048 104.435 45.4742C105.497 44.7735 106.331 43.8627 107.014 42.7416C107.62 41.6205 107.923 40.2892 107.923 38.8176C107.923 37.3461 107.62 36.0148 107.014 34.8937C106.407 33.7726 105.497 32.8617 104.435 32.1611C103.373 31.4602 102.084 31.18 100.719 31.18C99.354 31.18 98.1407 31.5304 97.0031 32.1611C95.9416 32.8617 95.1074 33.7726 94.4248 34.8937C93.8182 36.0148 93.5147 37.3461 93.5147 38.8176C93.5147 40.2892 93.8182 41.6205 94.4248 42.7416C95.0315 43.8627 95.9416 44.7735 97.0031 45.4742C98.1407 46.1048 99.354 46.4553 100.719 46.4553ZM127.262 18.4973C127.262 19.268 127.11 19.9688 126.731 20.5293C126.352 21.0899 125.821 21.5804 125.138 21.9308C124.456 22.281 123.697 22.4212 122.939 22.4212C122.181 22.4212 121.422 22.281 120.74 21.9308C120.057 21.5804 119.526 21.0899 119.147 20.5293C118.768 19.8987 118.616 19.268 118.616 18.4973C118.616 17.7265 118.768 17.0258 119.147 16.4652C119.526 15.8346 120.057 15.4142 120.74 15.0638C121.422 14.7135 122.181 14.5734 122.939 14.5734C123.697 14.5734 124.456 14.7135 125.138 15.0638C125.821 15.4142 126.352 15.9047 126.731 16.4652C127.034 17.0258 127.262 17.6564 127.262 18.4973ZM119.147 51.9907V25.5743H126.731V51.9907H119.147ZM146.979 32.5113V32.5813C146.6 32.4413 146.145 32.3711 145.765 32.3011C145.311 32.2311 144.931 32.2311 144.476 32.2311C142.353 32.2311 140.76 32.7915 139.699 33.9828C138.561 35.1739 138.03 36.8557 138.03 39.0278V51.9907H130.447V25.5743H137.423L137.651 29.5684C138.41 28.1669 139.319 27.1158 140.609 26.3452C141.822 25.5743 143.263 25.2241 144.931 25.2241C145.462 25.2241 145.993 25.2941 146.448 25.3641C146.675 25.4343 146.827 25.4343 146.979 25.5043V32.5113ZM150.012 51.9907V14.7135H157.596V28.9378C158.658 27.6765 159.871 26.6954 161.388 25.9247C162.904 25.2241 164.573 24.8036 166.469 24.8036C168.364 24.8036 170.109 25.1538 171.701 25.8547C173.294 26.5554 174.659 27.5363 175.872 28.7976C177.086 30.0589 177.995 31.5304 178.678 33.1419C179.361 34.8237 179.664 36.6454 179.664 38.6074C179.664 40.5694 179.285 42.4613 178.602 44.1429C177.92 45.8246 176.934 47.2962 175.72 48.6275C174.507 49.8888 173.066 50.9397 171.398 51.6405C169.73 52.3412 167.985 52.6914 166.014 52.6914C164.118 52.6914 162.449 52.3412 160.933 51.5703C159.416 50.8697 158.203 49.8186 157.217 48.4873L156.989 51.9208L150.012 51.9907ZM164.648 46.4553C166.014 46.4553 167.227 46.1048 168.364 45.4742C169.426 44.7735 170.26 43.8627 170.943 42.7416C171.55 41.6205 171.853 40.2892 171.853 38.8176C171.853 37.3461 171.55 36.0148 170.943 34.8937C170.26 33.7726 169.426 32.8617 168.364 32.1611C167.303 31.4602 166.014 31.18 164.648 31.18C163.284 31.18 162.07 31.5304 160.933 32.1611C159.871 32.8617 159.037 33.7726 158.354 34.8937C157.747 36.0148 157.444 37.3461 157.444 38.8176C157.444 40.2892 157.747 41.6205 158.354 42.7416C158.961 43.8627 159.871 44.7735 160.933 45.4742C162.07 46.1048 163.284 46.4553 164.648 46.4553ZM182.546 51.9907V25.5743H189.523L189.75 29.0078C190.584 27.7465 191.722 26.7656 193.163 25.9947C194.604 25.2241 196.272 24.8736 198.168 24.8736C200.291 24.8736 202.111 25.3641 203.628 26.2752C205.22 27.186 206.434 28.5173 207.268 30.1991C208.102 31.8806 208.557 33.9126 208.557 36.225V52.0607H200.974V37.1359C200.974 35.3141 200.519 33.8426 199.609 32.7915C198.699 31.7406 197.485 31.18 195.893 31.18C194.755 31.18 193.769 31.3902 192.859 31.8806C192.025 32.3711 191.343 33.0017 190.812 33.9128C190.281 34.7535 190.053 35.8046 190.053 36.8557V51.9907H182.546ZM212.349 51.9907V14.7135H219.933V28.9378C220.994 27.6765 222.208 26.6954 223.724 25.9247C225.241 25.2241 226.91 24.8036 228.806 24.8036C230.701 24.8036 232.445 25.1538 234.038 25.8547C235.631 26.5554 236.996 27.5363 238.209 28.7976C239.423 30.0589 240.332 31.5304 241.015 33.1419C241.699 34.8237 242 36.6454 242 38.6074C242 40.5694 241.623 42.4613 240.939 44.1429C240.256 45.8246 239.272 47.2962 238.057 48.6275C236.844 49.8888 235.403 50.9397 233.735 51.6405C232.066 52.3412 230.322 52.6914 228.35 52.6914C226.455 52.6914 224.786 52.3412 223.269 51.5703C221.753 50.8697 220.539 49.8186 219.554 48.4873L219.326 51.9208L212.349 51.9907ZM227.061 46.4553C228.426 46.4553 229.64 46.1048 230.777 45.4742C231.839 44.7735 232.673 43.8627 233.356 42.7416C233.962 41.6205 234.266 40.2892 234.266 38.8176C234.266 37.3461 233.962 36.0148 233.356 34.8937C232.749 33.7726 231.839 32.8617 230.777 32.1611C229.715 31.4602 228.426 31.18 227.061 31.18C225.696 31.18 224.483 31.5304 223.345 32.1611C222.284 32.8617 221.449 33.7726 220.767 34.8937C220.084 36.0148 219.857 37.3461 219.857 38.8176C219.857 40.2892 220.16 41.6205 220.767 42.7416C221.374 43.8627 222.284 44.7735 223.345 45.4742C224.483 46.1048 225.62 46.4553 227.061 46.4553Z" fill="black"/>
</g>
<defs>
<clipPath id="clip0_4_25">
<rect width="242" height="70" fill="white"/>
</clipPath>
</defs>
</svg>
