<svg width="26" height="37" viewBox="0 0 26 37" fill="none" xmlns="http://www.w3.org/2000/svg">
<path fill-rule="evenodd" clip-rule="evenodd" d="M11.21 26.3971L11.8537 25.698C12.5839 24.8934 13.2411 24.1281 13.8252 23.402L14.308 22.7891C16.3228 20.1752 17.3301 18.1017 17.3301 16.5685C17.3301 13.2958 14.59 10.6428 11.21 10.6428C7.82996 10.6428 5.0899 13.2958 5.0899 16.5685C5.0899 18.1017 6.09726 20.1752 8.11196 22.7891L8.59477 23.402C9.3458 24.3356 10.2176 25.334 11.21 26.3971Z" stroke="#E84A5F" stroke-width="1.375" stroke-linecap="round" stroke-linejoin="round"/>
<path d="M11.2101 18.991C12.6184 18.991 13.7601 17.8917 13.7601 16.5357C13.7601 15.1796 12.6184 14.0803 11.2101 14.0803C9.80172 14.0803 8.66003 15.1796 8.66003 16.5357C8.66003 17.8917 9.80172 18.991 11.2101 18.991Z" stroke="#E84A5F" stroke-width="1.375" stroke-linecap="round" stroke-linejoin="round"/>
</svg>
