<svg width="153" height="59" viewBox="0 0 153 59" fill="none" xmlns="http://www.w3.org/2000/svg">
<g clip-path="url(#clip0_1_124)">
<path d="M38.5344 34.6355C38.5344 34.7177 38.5152 34.7988 38.4785 34.8723C38.4417 34.9458 38.3883 35.0098 38.3226 35.0591C38.0776 35.5064 37.7942 35.9315 37.4755 36.3297C36.6677 37.4629 35.6191 38.4031 34.4048 39.0828C33.4014 39.6719 32.2808 40.0334 31.1223 40.1416H30.8046C29.3947 40.1344 28.0371 39.6065 26.9927 38.6592C26.0236 37.9357 25.1977 37.038 24.5573 36.0121C23.9398 35.1283 23.4414 34.167 23.0749 33.1531C23.0365 33.1101 23.0074 33.0598 22.9892 33.0052C22.971 32.9506 22.9641 32.8928 22.969 32.8354V32.6237C22.166 30.5664 21.7704 28.3727 21.8042 26.1646V25.2116C21.781 24.8202 21.8167 24.4276 21.9101 24.0468H40.3344C40.0101 22.1851 39.2878 20.4153 38.2167 18.8584C37.0602 17.3868 35.6199 16.1626 33.9812 15.2582C32.3132 14.3844 30.4638 13.913 28.581 13.8817C27.2767 13.9032 25.9864 14.1541 24.7691 14.6229C24.2669 14.7243 23.7955 14.9419 23.3925 15.2582L22.8631 15.47C21.1555 16.5064 19.7069 17.9188 18.6276 19.5996C17.0307 22.0183 16.1835 24.8546 16.1922 27.7529C16.2118 29.1101 16.3895 30.4605 16.7216 31.7766C16.8275 31.9883 16.8275 32.2001 16.9334 32.4119C17.6619 34.7446 19.0172 36.8324 20.8512 38.4475C21.9025 39.4062 23.1235 40.1603 24.4514 40.6711C25.7613 41.2142 27.163 41.5018 28.581 41.5182C29.9978 41.4917 31.3977 41.2046 32.7106 40.6711C33.4905 40.4058 34.2367 40.0505 34.9342 39.6122L37.0519 37.8121L37.6873 37.0709L37.899 36.8592C38.2883 36.3549 38.6421 35.8241 38.9579 35.2708L39.2756 34.6355C39.6755 33.9323 39.9952 33.1865 40.2286 32.4119H39.4874C39.2901 33.1991 38.9684 33.9498 38.5344 34.6355ZM23.0749 19.3878C23.4801 18.5335 24.016 17.7476 24.6632 17.0583L25.6161 16.1053C26.5783 15.3596 27.703 14.8517 28.8986 14.6229H29.534C30.5184 14.6531 31.4883 14.8686 32.3929 15.2582C33.1047 15.5267 33.7804 15.8824 34.4048 16.3171C35.4002 16.9705 36.1463 17.9404 36.5225 19.0701C36.7521 20.0079 36.8938 20.965 36.9461 21.9291C36.9461 22.4585 36.8402 22.8821 36.8402 23.4115H21.9101C22.0711 22.0147 22.4648 20.6546 23.0749 19.3878Z" fill="url(#paint0_linear_1_124)"/>
<path d="M51.1349 38.9769C50.4606 39.6244 49.7146 40.1928 48.9113 40.6711C47.8908 41.1864 46.7712 41.4754 45.6288 41.5182H44.6758C44.2861 41.4275 43.9233 41.2461 43.6169 40.9887C43.3383 40.6969 43.1538 40.3279 43.0875 39.9299C42.9949 39.585 42.9591 39.2274 42.9816 38.871V2.65764C42.9562 2.39034 42.8775 2.13084 42.7502 1.89443C42.6229 1.65802 42.4496 1.44948 42.2404 1.28111C41.7363 1.07403 41.197 0.966171 40.6521 0.963447V0.328125H47.8524V33.0472C47.8279 33.931 47.8633 34.8154 47.9583 35.6944V38.871C48.0642 39.4004 48.276 39.6122 48.5936 39.6122H48.9113C49.2656 39.5747 49.599 39.4265 49.8643 39.1887L50.8173 38.5533L51.1349 38.9769Z" fill="url(#paint1_linear_1_124)"/>
<path d="M61.9354 38.9769C61.2611 39.6244 60.515 40.1928 59.7118 40.6711C58.6913 41.1864 57.5716 41.4754 56.4293 41.5182H55.4763C55.0626 41.4298 54.6901 41.2063 54.4174 40.8829C54.2581 40.7792 54.1266 40.6382 54.0343 40.4721C53.942 40.306 53.8918 40.1199 53.888 39.9299C53.7953 39.585 53.7595 39.2274 53.7821 38.871V2.65764C53.7566 2.39034 53.678 2.13084 53.5507 1.89443C53.4234 1.65802 53.25 1.44948 53.0409 1.28111C52.5368 1.07403 51.9975 0.966171 51.4526 0.963447H51.3467V0.328125H58.547V38.871C58.6529 39.4004 58.8647 39.6122 59.2882 39.6122H59.6059C59.9323 39.5855 60.2357 39.4337 60.453 39.1887L61.5118 38.5533L61.9354 38.9769Z" fill="url(#paint2_linear_1_124)"/>
<path d="M88.6189 14.0934L86.6071 18.5407L82.3716 27.9646L78.242 37.2827L78.0302 37.7062L76.2301 41.6241H76.0184L74.1124 37.6004L64.0531 16.2112C63.9679 15.9956 63.8394 15.7998 63.6755 15.6358C63.5115 15.4719 63.3157 15.3434 63.1001 15.2582L61.7236 14.8346H60.6647V14.0934H68.3945L78.3479 35.3767L80.0421 31.5648L83.3246 24.3645L86.5012 17.3759L87.8777 14.0934H88.6189Z" fill="url(#paint3_linear_1_124)"/>
<path d="M118.691 13.9875L116.679 18.4348C115.514 21.082 114.138 24.0468 112.655 27.5411L108.42 36.965C107.89 38.0239 107.361 39.2945 106.831 40.5652C106.302 41.8358 104.82 44.9066 103.549 47.5537C102.371 49.9177 100.952 52.1533 99.3135 54.2246C97.7297 56.1243 95.7394 57.6442 93.4897 58.6719L92.2191 55.8129C92.0073 55.6011 92.1132 55.2835 92.2191 55.0717C92.2813 54.9615 92.375 54.8724 92.4882 54.8158C92.6014 54.7592 92.7289 54.7377 92.8544 54.7541L95.2898 54.4364C96.3985 54.1424 97.4407 53.6393 98.3605 52.954C99.6947 52.0068 100.843 50.8224 101.749 49.4597C102.49 48.0832 103.337 46.7066 103.973 45.2242C104.608 43.7418 105.243 42.3653 105.878 41.2005L104.078 37.2827L94.125 16.1053C93.9196 15.6923 93.585 15.3577 93.172 15.1523L91.7955 14.7288H90.7366V14.0934H98.4664L108.42 35.2708C108.632 34.9532 109.161 33.5766 110.114 31.4589L113.396 24.2586L116.467 17.27L117.95 13.9875H118.691Z" fill="url(#paint4_linear_1_124)"/>
<path d="M18.4158 34.4237L18.7335 35.165L17.7805 37.2827L15.8745 41.6241H15.5569L9.52131 28.8117L8.88599 27.3293L3.69753 16.2112C3.49212 15.7982 3.15751 15.4636 2.74454 15.2582L1.36801 14.8346H0.309143V14.0934H8.0389L13.545 25.9528L15.3451 29.7647L17.9923 35.3767L18.4158 34.4237Z" fill="url(#paint5_linear_1_124)"/>
</g>
<defs>
<linearGradient id="paint0_linear_1_124" x1="28.2633" y1="41.6135" x2="28.2633" y2="13.9134" gradientUnits="userSpaceOnUse">
<stop stop-color="#9599CC"/>
<stop offset="0.03" stop-color="#8D91C2"/>
<stop offset="0.14" stop-color="#6B6E97"/>
<stop offset="0.26" stop-color="#4E5171"/>
<stop offset="0.39" stop-color="#363853"/>
<stop offset="0.52" stop-color="#23263C"/>
<stop offset="0.65" stop-color="#16182B"/>
<stop offset="0.81" stop-color="#0E1021"/>
<stop offset="1" stop-color="#0C0E1E"/>
</linearGradient>
<linearGradient id="paint1_linear_1_124" x1="45.8723" y1="41.5182" x2="45.8723" y2="0.328125" gradientUnits="userSpaceOnUse">
<stop stop-color="#9599CC"/>
<stop offset="0.03" stop-color="#8D91C2"/>
<stop offset="0.14" stop-color="#6B6E97"/>
<stop offset="0.26" stop-color="#4E5171"/>
<stop offset="0.39" stop-color="#363853"/>
<stop offset="0.52" stop-color="#23263C"/>
<stop offset="0.65" stop-color="#16182B"/>
<stop offset="0.81" stop-color="#0E1021"/>
<stop offset="1" stop-color="#0C0E1E"/>
</linearGradient>
<linearGradient id="paint2_linear_1_124" x1="56.641" y1="41.5182" x2="56.641" y2="0.328125" gradientUnits="userSpaceOnUse">
<stop stop-color="#9599CC"/>
<stop offset="0.03" stop-color="#8D91C2"/>
<stop offset="0.14" stop-color="#6B6E97"/>
<stop offset="0.26" stop-color="#4E5171"/>
<stop offset="0.39" stop-color="#363853"/>
<stop offset="0.52" stop-color="#23263C"/>
<stop offset="0.65" stop-color="#16182B"/>
<stop offset="0.81" stop-color="#0E1021"/>
<stop offset="1" stop-color="#0C0E1E"/>
</linearGradient>
<linearGradient id="paint3_linear_1_124" x1="74.6524" y1="41.6452" x2="74.6524" y2="14.0511" gradientUnits="userSpaceOnUse">
<stop stop-color="#9599CC"/>
<stop offset="0.03" stop-color="#8D91C2"/>
<stop offset="0.14" stop-color="#6B6E97"/>
<stop offset="0.26" stop-color="#4E5171"/>
<stop offset="0.39" stop-color="#363853"/>
<stop offset="0.52" stop-color="#23263C"/>
<stop offset="0.65" stop-color="#16182B"/>
<stop offset="0.81" stop-color="#0E1021"/>
<stop offset="1" stop-color="#0C0E1E"/>
</linearGradient>
<linearGradient id="paint4_linear_1_124" x1="104.703" y1="58.7142" x2="104.703" y2="13.9875" gradientUnits="userSpaceOnUse">
<stop stop-color="#9599CC"/>
<stop offset="0.03" stop-color="#8D91C2"/>
<stop offset="0.14" stop-color="#6B6E97"/>
<stop offset="0.26" stop-color="#4E5171"/>
<stop offset="0.39" stop-color="#363853"/>
<stop offset="0.52" stop-color="#23263C"/>
<stop offset="0.65" stop-color="#16182B"/>
<stop offset="0.81" stop-color="#0E1021"/>
<stop offset="1" stop-color="#0C0E1E"/>
</linearGradient>
<linearGradient id="paint5_linear_1_124" x1="9.54249" y1="41.6558" x2="9.54249" y2="14.0511" gradientUnits="userSpaceOnUse">
<stop stop-color="#9599CC"/>
<stop offset="0.03" stop-color="#8D91C2"/>
<stop offset="0.14" stop-color="#6B6E97"/>
<stop offset="0.26" stop-color="#4E5171"/>
<stop offset="0.39" stop-color="#363853"/>
<stop offset="0.52" stop-color="#23263C"/>
<stop offset="0.65" stop-color="#16182B"/>
<stop offset="0.81" stop-color="#0E1021"/>
<stop offset="1" stop-color="#0C0E1E"/>
</linearGradient>
<clipPath id="clip0_1_124">
<rect width="118.382" height="58.3437" fill="white" transform="translate(0.309143 0.328125)"/>
</clipPath>
</defs>
</svg>
